<?xml version="1.0" encoding="UTF-8" standalone="no"?><!DOCTYPE svg PUBLIC "-//W3C//DTD SVG 1.1//EN" "http://www.w3.org/Graphics/SVG/1.1/DTD/svg11.dtd"><svg width="100%" height="100%" viewBox="0 0 512 512" version="1.1" xmlns="http://www.w3.org/2000/svg" xmlns:xlink="http://www.w3.org/1999/xlink" xml:space="preserve" xmlns:serif="http://www.serif.com/" style="fill-rule:evenodd;clip-rule:evenodd;stroke-linejoin:round;stroke-miterlimit:2;"><path d="M162.95,178.272c13.049,-16.771 16.447,-23.917 41.64,-49.932c49.784,-51.406 128.321,-117.394 186.961,-104.943c89.513,19.006 106.437,226.23 17.351,315.989c-82.157,82.777 -233.485,63.882 -310.665,31.539c-68.697,-28.789 24.277,-140.677 64.713,-192.653Zm240.295,-110.233c-3.973,-0.789 -9.064,7.562 -3.552,14.911c7.204,9.605 17.027,-5.033 9.575,-11.606c-0.588,-0.712 -1.241,-1.318 -1.904,-1.809c-0.554,-0.475 -1.122,-0.864 -1.738,-1.13c0.058,-0.111 0.145,-0.235 0.323,-0.413c-0.178,0.178 -0.265,0.302 -0.323,0.413c-0.711,-0.306 -1.486,-0.448 -2.381,-0.366Zm-249.898,198.235c-7.126,21.702 -11.485,53.392 3.393,60.595c21.478,10.398 86.203,9.788 128.158,-12.485c12.526,-6.65 20.962,-11.251 27.436,-18.76c96.827,-112.312 -24.298,-208.2 -98.26,-126.774c-9.977,10.636 -46.201,53.183 -60.727,97.424Z" style="fill:#983030;"/><path d="M144.425,339.262l-103.468,147.605l-43.777,-70.681l94.488,-121.871l52.757,44.947Z" style="fill:#983030;"/><path d="M507.531,105.593l-63.929,33.285l-1.914,-62.602l65.843,29.317Z" style="fill:#983030;"/><path d="M217.975,389.171l33.181,94.061l-14.33,5.055l-33.181,-94.061l14.33,-5.055Z" style="fill:#983030;"/><path d="M292.228,377.677l42.257,102.855l-14.819,6.088l-42.257,-102.855l14.819,-6.088Z" style="fill:#983030;"/><path d="M373.178,479.41l0.255,13.36l-182.082,3.469l-0.255,-13.359l182.082,-3.47Z" style="fill:#983030;"/></svg>